<svg width="24" height="24" viewBox="0 0 24 24" fill="none" xmlns="http://www.w3.org/2000/svg">
<path d="M10.713 10.53C10.9041 10.5848 11.0656 10.7132 11.1621 10.887C11.2586 11.0608 11.2821 11.2658 11.2275 11.457L8.22749 21.957C8.18616 22.1052 8.10006 22.2371 7.98096 22.3345C7.86187 22.4319 7.71559 22.4902 7.56212 22.5014C7.40865 22.5126 7.25547 22.476 7.12353 22.3969C6.99159 22.3177 6.88733 22.1997 6.82499 22.059C6.75118 21.8971 6.73736 21.7142 6.78599 21.543L9.78599 11.043C9.84108 10.8522 9.96962 10.691 10.1434 10.5948C10.3172 10.4986 10.522 10.4753 10.713 10.53ZM13.5 6.75C13.5 7.34674 13.737 7.91903 14.159 8.34099C14.581 8.76295 15.1532 9 15.75 9H21V20.25C21 20.8467 20.7629 21.419 20.341 21.841C19.919 22.2629 19.3467 22.5 18.75 22.5H13.272L16.1865 19.0635L17.457 17.583C17.8064 17.1752 17.9984 16.656 17.9984 16.119C17.9984 15.582 17.8064 15.0628 17.457 14.655L15.207 12.03L15.0495 11.862C14.7487 11.5767 14.3749 11.38 13.9694 11.2937C13.5639 11.2074 13.1424 11.2349 12.7515 11.373C12.7775 10.9033 12.6556 10.4372 12.403 10.0403C12.1503 9.64343 11.7796 9.33573 11.343 9.1605L11.1255 9.0855L10.9005 9.0345C10.3911 8.94406 9.86614 9.03192 9.41397 9.28328C8.9618 9.53464 8.61006 9.93414 8.41798 10.4145L8.34299 10.632L7.71599 12.822C7.23744 12.2993 6.65225 11.8855 5.99999 11.6085V3.75C5.99999 3.15326 6.23704 2.58097 6.65899 2.15901C7.08095 1.73705 7.65325 1.5 8.24999 1.5H13.5V6.75ZM3.92999 13.005C4.05948 12.8538 4.24372 12.7603 4.44218 12.745C4.64064 12.7296 4.83706 12.7938 4.98824 12.9233C5.13941 13.0527 5.23295 13.237 5.24828 13.4354C5.26361 13.6339 5.19948 13.8303 5.06999 13.9815L3.23849 16.119L5.06849 18.255C5.18862 18.4069 5.24534 18.5994 5.22677 18.7921C5.20821 18.9849 5.11579 19.163 4.96888 19.2892C4.82196 19.4154 4.63193 19.4798 4.43857 19.4691C4.24521 19.4583 4.0635 19.3732 3.93149 19.2315L1.68149 16.6065C1.56489 16.4705 1.50079 16.2974 1.50079 16.1182C1.50079 15.9391 1.56489 15.766 1.68149 15.63L3.92999 13.005ZM13.0125 12.924C13.1635 12.7945 13.3597 12.7303 13.558 12.7455C13.7563 12.7607 13.9405 12.854 14.07 13.005L16.32 15.63C16.4366 15.766 16.5007 15.9391 16.5007 16.1182C16.5007 16.2974 16.4366 16.4705 16.32 16.6065L14.07 19.2315C13.9405 19.3827 13.7563 19.4762 13.5578 19.4915C13.3593 19.5069 13.1629 19.4427 13.0117 19.3132C12.8606 19.1838 12.767 18.9995 12.7517 18.8011C12.7364 18.6026 12.8005 18.4062 12.93 18.255L14.763 16.119L12.93 13.9815C12.8005 13.8305 12.7363 13.6343 12.7515 13.436C12.7667 13.2377 12.86 13.0535 13.011 12.924M20.625 7.5H15.75C15.5511 7.5 15.3603 7.42098 15.2197 7.28033C15.079 7.13968 15 6.94891 15 6.75V1.875L20.625 7.5Z" fill="#1E40AF"/>
</svg>
