<svg width="24" height="24" viewBox="0 0 24 24" fill="none" xmlns="http://www.w3.org/2000/svg">
<path fill-rule="evenodd" clip-rule="evenodd" d="M2 12V8C2 5.172 2 3.757 2.879 2.879C3.757 2 5.172 2 8 2H16C18.828 2 20.243 2 21.121 2.879C22 3.757 22 5.172 22 8V12C22 14.828 22 16.243 21.121 17.121C20.475 17.768 19.539 17.939 17.963 17.984C17.96 17.2262 17.6882 16.4941 17.196 15.918C17.1664 15.8847 17.1488 15.8425 17.146 15.798C17.0854 15.0373 16.7558 14.3231 16.2163 13.7834C15.6768 13.2437 14.9627 12.9138 14.202 12.853C14.1575 12.8502 14.1153 12.8326 14.082 12.803C13.5012 12.3081 12.7631 12.0362 12 12.0362C11.2369 12.0362 10.4988 12.3081 9.918 12.803C9.88468 12.8326 9.84245 12.8502 9.798 12.853C9.03714 12.9136 8.32277 13.2433 7.78305 13.7831C7.24334 14.3228 6.9136 15.0371 6.853 15.798C6.85016 15.8425 6.83256 15.8847 6.803 15.918C6.31114 16.4943 6.03971 17.2264 6.037 17.984C4.461 17.939 3.525 17.768 2.879 17.121C2 16.243 2 14.828 2 12ZM8.25 6C8.25 5.80109 8.32902 5.61032 8.46967 5.46967C8.61032 5.32902 8.80109 5.25 9 5.25H15C15.1989 5.25 15.3897 5.32902 15.5303 5.46967C15.671 5.61032 15.75 5.80109 15.75 6C15.75 6.19891 15.671 6.38968 15.5303 6.53033C15.3897 6.67098 15.1989 6.75 15 6.75H9C8.80109 6.75 8.61032 6.67098 8.46967 6.53033C8.32902 6.38968 8.25 6.19891 8.25 6ZM7 8.75C6.80109 8.75 6.61032 8.82902 6.46967 8.96967C6.32902 9.11032 6.25 9.30109 6.25 9.5C6.25 9.69891 6.32902 9.88968 6.46967 10.0303C6.61032 10.171 6.80109 10.25 7 10.25H17C17.1989 10.25 17.3897 10.171 17.5303 10.0303C17.671 9.88968 17.75 9.69891 17.75 9.5C17.75 9.30109 17.671 9.11032 17.5303 8.96967C17.3897 8.82902 17.1989 8.75 17 8.75H7Z" fill="#1E40AF"/>
<path fill-rule="evenodd" clip-rule="evenodd" d="M13.11 13.945C12.8005 13.6809 12.4069 13.5358 12 13.5358C11.5931 13.5358 11.1995 13.6809 10.89 13.945C10.6165 14.1789 10.2758 14.32 9.917 14.348C9.51147 14.3803 9.13073 14.5561 8.84316 14.8438C8.55558 15.1316 8.38002 15.5124 8.348 15.918C8.32 16.276 8.178 16.616 7.945 16.891C7.6814 17.2004 7.53662 17.5935 7.53662 18C7.53662 18.4064 7.6814 18.7996 7.945 19.109C8.179 19.383 8.32 19.724 8.348 20.082C8.38005 20.4877 8.55576 20.8687 8.84353 21.1565C9.13131 21.4442 9.51229 21.6199 9.918 21.652C10.276 21.68 10.617 21.821 10.891 22.054C11.2004 22.3176 11.5935 22.4624 12 22.4624C12.4065 22.4624 12.7996 22.3176 13.109 22.054C13.3825 21.8201 13.7232 21.6789 14.082 21.651C14.4876 21.619 14.8684 21.4434 15.1562 21.1558C15.4439 20.8683 15.6197 20.4875 15.652 20.082C15.6797 19.7233 15.8204 19.3826 16.054 19.109C16.3179 18.7995 16.4628 18.4062 16.4628 17.9995C16.4628 17.5928 16.3179 17.1995 16.054 16.89C15.8201 16.6165 15.679 16.2758 15.651 15.917C15.6187 15.5116 15.4431 15.131 15.1555 14.8435C14.868 14.5559 14.4874 14.3802 14.082 14.348C13.7232 14.32 13.3835 14.1789 13.11 13.945ZM14.011 17.548C14.0841 17.481 14.1431 17.4003 14.1848 17.3104C14.2264 17.2204 14.2499 17.1232 14.2537 17.0241C14.2575 16.9251 14.2417 16.8263 14.2072 16.7334C14.1726 16.6406 14.1199 16.5555 14.0523 16.4831C13.9846 16.4106 13.9033 16.3524 13.813 16.3116C13.7227 16.2708 13.6252 16.2483 13.5261 16.2454C13.4271 16.2425 13.3284 16.2593 13.2359 16.2947C13.1433 16.3302 13.0588 16.3836 12.987 16.452L11.357 17.974L11.011 17.652C10.8653 17.5184 10.6727 17.4478 10.4752 17.4555C10.2777 17.4631 10.0912 17.5485 9.95624 17.6929C9.8213 17.8373 9.74883 18.0292 9.75459 18.2268C9.76035 18.4244 9.84387 18.6117 9.987 18.748L10.844 19.548C10.9829 19.6778 11.1659 19.7499 11.356 19.7499C11.5461 19.7499 11.7291 19.6778 11.868 19.548L14.011 17.548Z" fill="#1E40AF"/>
</svg>
